<svg width="4" height="14" viewBox="0 0 4 14" xmlns="http://www.w3.org/2000/svg">
<path d="M2.00001 13.6667C1.54168 13.6667 1.14932 13.5035 0.822927 13.1771C0.496538 12.8507 0.333344 12.4583 0.333344 12C0.333344 11.5417 0.496538 11.1493 0.822927 10.8229C1.14932 10.4965 1.54168 10.3333 2.00001 10.3333C2.45834 10.3333 2.8507 10.4965 3.17709 10.8229C3.50348 11.1493 3.66668 11.5417 3.66668 12C3.66668 12.4583 3.50348 12.8507 3.17709 13.1771C2.8507 13.5035 2.45834 13.6667 2.00001 13.6667ZM2.00001 8.66668C1.54168 8.66668 1.14932 8.50348 0.822927 8.17709C0.496538 7.8507 0.333344 7.45834 0.333344 7.00001C0.333344 6.54168 0.496538 6.14932 0.822927 5.82293C1.14932 5.49654 1.54168 5.33334 2.00001 5.33334C2.45834 5.33334 2.8507 5.49654 3.17709 5.82293C3.50348 6.14932 3.66668 6.54168 3.66668 7.00001C3.66668 7.45834 3.50348 7.8507 3.17709 8.17709C2.8507 8.50348 2.45834 8.66668 2.00001 8.66668ZM2.00001 3.66668C1.54168 3.66668 1.14932 3.50348 0.822927 3.17709C0.496538 2.8507 0.333344 2.45834 0.333344 2.00001C0.333344 1.54168 0.496538 1.14932 0.822927 0.822927C1.14932 0.496538 1.54168 0.333344 2.00001 0.333344C2.45834 0.333344 2.8507 0.496538 3.17709 0.822927C3.50348 1.14932 3.66668 1.54168 3.66668 2.00001C3.66668 2.45834 3.50348 2.8507 3.17709 3.17709C2.8507 3.50348 2.45834 3.66668 2.00001 3.66668Z" fill="#EEEEEE"/>
</svg>
