<svg width="20" height="19" viewBox="0 0 20 19" fill="none" xmlns="http://www.w3.org/2000/svg">
<mask id="mask0_45_405" style="mask-type:alpha" maskUnits="userSpaceOnUse" x="0" y="0" width="20" height="19">
<rect x="0.210938" width="19.7891" height="19" fill="#D9D9D9"/>
</mask>
<g mask="url(#mask0_45_405)">
<path d="M3.50909 15.0417V13.4583H5.15818V7.91667C5.15818 6.82153 5.50174 5.84844 6.18886 4.9974C6.87598 4.14636 7.76924 3.58889 8.86863 3.325V2.77084C8.86863 2.44097 8.98888 2.16059 9.22937 1.92969C9.46986 1.69879 9.76189 1.58334 10.1054 1.58334C10.449 1.58334 10.741 1.69879 10.9815 1.92969C11.222 2.16059 11.3423 2.44097 11.3423 2.77084V3.325C12.4417 3.58889 13.3349 4.14636 14.022 4.9974C14.7092 5.84844 15.0527 6.82153 15.0527 7.91667V13.4583H16.7018V15.0417H3.50909ZM10.1054 17.4167C9.65195 17.4167 9.26373 17.2616 8.94078 16.9516C8.61783 16.6415 8.45636 16.2688 8.45636 15.8333H11.7545C11.7545 16.2688 11.5931 16.6415 11.2701 16.9516C10.9472 17.2616 10.5589 17.4167 10.1054 17.4167ZM6.80727 13.4583H13.4036V7.91667C13.4036 7.04584 13.0807 6.30035 12.4348 5.68021C11.7889 5.06007 11.0124 4.75 10.1054 4.75C9.19845 4.75 8.42201 5.06007 7.77611 5.68021C7.13022 6.30035 6.80727 7.04584 6.80727 7.91667V13.4583Z" fill="#EEEEEE"/>
</g>
</svg>
