<svg width="18" height="16" viewBox="0 0 18 16" fill="none" xmlns="http://www.w3.org/2000/svg">
<path d="M6.62706 15.8333L6.29724 13.3C6.11859 13.234 5.95024 13.1549 5.7922 13.0625C5.63417 12.9701 5.47956 12.8712 5.3284 12.7656L2.87538 13.7552L0.60788 9.99479L2.73108 8.45104C2.71734 8.35868 2.71047 8.26962 2.71047 8.18385V7.64948C2.71047 7.56371 2.71734 7.47465 2.73108 7.38229L0.60788 5.83854L2.87538 2.07812L5.3284 3.06771C5.47956 2.96215 5.6376 2.86319 5.80251 2.77083C5.96742 2.67847 6.13233 2.59931 6.29724 2.53333L6.62706 0H11.1621L11.4919 2.53333C11.6705 2.59931 11.8389 2.67847 11.9969 2.77083C12.1549 2.86319 12.3095 2.96215 12.4607 3.06771L14.9137 2.07812L17.1812 5.83854L15.058 7.38229C15.0718 7.47465 15.0786 7.56371 15.0786 7.64948V8.18385C15.0786 8.26962 15.0649 8.35868 15.0374 8.45104L17.1606 9.99479L14.8931 13.7552L12.4607 12.7656C12.3095 12.8712 12.1515 12.9701 11.9866 13.0625C11.8217 13.1549 11.6568 13.234 11.4919 13.3L11.1621 15.8333H6.62706ZM8.07001 14.25H9.69848L9.98707 12.1521C10.4131 12.0465 10.8082 11.8915 11.1724 11.687C11.5365 11.4825 11.8698 11.2351 12.1721 10.9448L14.2129 11.7562L15.0168 10.4104L13.244 9.12396C13.3127 8.93924 13.3608 8.74462 13.3883 8.5401C13.4158 8.33559 13.4295 8.12778 13.4295 7.91667C13.4295 7.70555 13.4158 7.49774 13.3883 7.29323C13.3608 7.08872 13.3127 6.8941 13.244 6.70937L15.0168 5.42292L14.2129 4.07708L12.1721 4.90833C11.8698 4.60486 11.5365 4.35087 11.1724 4.14635C10.8082 3.94184 10.4131 3.78681 9.98707 3.68125L9.7191 1.58333H8.09062L7.80203 3.68125C7.37602 3.78681 6.98092 3.94184 6.61675 4.14635C6.25257 4.35087 5.91932 4.59826 5.61699 4.88854L3.57624 4.07708L2.77231 5.42292L4.54508 6.68958C4.47637 6.8875 4.42827 7.08542 4.40078 7.28333C4.3733 7.48125 4.35956 7.69236 4.35956 7.91667C4.35956 8.12778 4.3733 8.33229 4.40078 8.53021C4.42827 8.72812 4.47637 8.92604 4.54508 9.12396L2.77231 10.4104L3.57624 11.7562L5.61699 10.925C5.91932 11.2285 6.25257 11.4825 6.61675 11.687C6.98092 11.8915 7.37602 12.0465 7.80203 12.1521L8.07001 14.25ZM8.93578 10.6875C9.73284 10.6875 10.4131 10.417 10.9765 9.87604C11.54 9.33507 11.8217 8.68194 11.8217 7.91667C11.8217 7.15139 11.54 6.49826 10.9765 5.95729C10.4131 5.41632 9.73284 5.14583 8.93578 5.14583C8.12498 5.14583 7.44129 5.41632 6.88473 5.95729C6.32816 6.49826 6.04987 7.15139 6.04987 7.91667C6.04987 8.68194 6.32816 9.33507 6.88473 9.87604C7.44129 10.417 8.12498 10.6875 8.93578 10.6875Z" fill="#EEEEEE"/>
</svg>
