<svg width="15" height="15" viewBox="0 0 15 15" fill="none" xmlns="http://www.w3.org/2000/svg">
<mask id="mask0_25_1222" style="mask-type:alpha" maskUnits="userSpaceOnUse" x="0" y="0" width="15" height="15">
<rect width="15" height="15" fill="#D9D9D9"/>
</mask>
<g mask="url(#mask0_25_1222)">
<path d="M3.75 12.5C3.0625 12.5 2.47396 12.2552 1.98438 11.7656C1.49479 11.276 1.25 10.6875 1.25 10V5C1.25 4.3125 1.49479 3.72396 1.98438 3.23438C2.47396 2.74479 3.0625 2.5 3.75 2.5H11.25C11.9375 2.5 12.526 2.74479 13.0156 3.23438C13.5052 3.72396 13.75 4.3125 13.75 5V10C13.75 10.6875 13.5052 11.276 13.0156 11.7656C12.526 12.2552 11.9375 12.5 11.25 12.5H3.75ZM3.75 5H11.25C11.4792 5 11.6979 5.02604 11.9063 5.07812C12.1146 5.13021 12.3125 5.21354 12.5 5.32812V5C12.5 4.65625 12.3776 4.36198 12.1328 4.11719C11.888 3.8724 11.5938 3.75 11.25 3.75H3.75C3.40625 3.75 3.11198 3.8724 2.86719 4.11719C2.6224 4.36198 2.5 4.65625 2.5 5V5.32812C2.6875 5.21354 2.88542 5.13021 3.09375 5.07812C3.30208 5.02604 3.52083 5 3.75 5ZM2.59375 7.03125L9.54688 8.71875C9.64062 8.73958 9.73438 8.73958 9.82812 8.71875C9.92188 8.69792 10.0104 8.65625 10.0938 8.59375L12.2656 6.78125C12.151 6.625 12.0052 6.4974 11.8281 6.39844C11.651 6.29948 11.4583 6.25 11.25 6.25H3.75C3.47917 6.25 3.24219 6.32031 3.03906 6.46094C2.83594 6.60156 2.6875 6.79167 2.59375 7.03125Z" fill="#EEEEEE"/>
</g>
</svg>
